<svg width="9" height="6" viewBox="0 0 9 6" fill="none" xmlns="http://www.w3.org/2000/svg">
<path d="M0.915885 1.37495C0.915315 1.27625 0.934233 1.1784 0.971557 1.08702C1.00888 0.995646 1.06388 0.912534 1.13339 0.842454C1.20311 0.772158 1.28606 0.716362 1.37745 0.678286C1.46885 0.640209 1.56688 0.620605 1.66589 0.620605C1.76489 0.620605 1.86292 0.640209 1.95432 0.678286C2.04571 0.716362 2.12866 0.772158 2.19839 0.842454L4.66589 3.32495L7.14839 0.939954C7.28891 0.800266 7.479 0.72186 7.67714 0.72186C7.87528 0.72186 8.06536 0.800266 8.20589 0.939954C8.27618 1.00968 8.33198 1.09263 8.37005 1.18402C8.40813 1.27542 8.42773 1.37345 8.42773 1.47245C8.42773 1.57146 8.40813 1.66949 8.37005 1.76089C8.33198 1.85228 8.27618 1.93523 8.20589 2.00495L5.20589 4.89995C5.06569 5.03737 4.8772 5.11435 4.68089 5.11435C4.48457 5.11435 4.29608 5.03737 4.15589 4.89995L1.15589 1.89995C1.08319 1.83264 1.02455 1.75158 0.983353 1.66147C0.942159 1.57136 0.919229 1.47398 0.915885 1.37495Z" fill="white"/>
</svg>
