<svg width="50" height="50" viewBox="0 0 50 50" fill="none" xmlns="http://www.w3.org/2000/svg">
<path d="M41.7734 23.8956L27.1901 9.31225C26.7882 8.92149 26.2083 8.77484 25.669 8.92753C25.1296 9.08023 24.7126 9.50908 24.5752 10.0525C24.4378 10.596 24.6007 11.1715 25.0026 11.5622L36.8984 23.4372H9.33594C8.47299 23.4372 7.77344 24.1368 7.77344 24.9997C7.77344 25.8627 8.47299 26.5622 9.33594 26.5622H36.8776L25.0026 38.4372C24.7048 38.7274 24.5368 39.1256 24.5368 39.5414C24.5368 39.9572 24.7048 40.3554 25.0026 40.6456C25.2898 40.9469 25.6906 41.1133 26.1068 41.1039C26.5215 41.1059 26.9195 40.9407 27.2109 40.6456L41.7943 26.0622C42.4035 25.4522 42.4035 24.464 41.7943 23.8539L41.7734 23.8956Z" fill="white"/>
</svg>
