<svg width="63" height="63" viewBox="0 0 63 63" fill="none" xmlns="http://www.w3.org/2000/svg">
<path d="M20.4062 5.23242H42.3819C50.7536 5.23242 57.5557 12.0344 57.5557 20.4062V42.3819C57.5557 46.4062 55.957 50.2657 53.1114 53.1114C50.2657 55.957 46.4062 57.5557 42.3819 57.5557H20.4062C12.0344 57.5557 5.23242 50.7536 5.23242 42.3819V20.4062C5.23242 16.3818 6.83108 12.5223 9.67671 9.67671C12.5223 6.83108 16.3818 5.23242 20.4062 5.23242ZM19.8829 10.4647C17.3851 10.4647 14.9895 11.457 13.2233 13.2233C11.457 14.9895 10.4647 17.3851 10.4647 19.8829V42.9051C10.4647 48.1113 14.6768 52.3233 19.8829 52.3233H42.9051C45.403 52.3233 47.7986 51.3311 49.5648 49.5648C51.3311 47.7986 52.3233 45.403 52.3233 42.9051V19.8829C52.3233 14.6768 48.1113 10.4647 42.9051 10.4647H19.8829ZM45.1289 14.389C45.9962 14.389 46.828 14.7335 47.4413 15.3468C48.0546 15.9601 48.3991 16.7919 48.3991 17.6592C48.3991 18.5265 48.0546 19.3583 47.4413 19.9716C46.828 20.5849 45.9962 20.9294 45.1289 20.9294C44.2616 20.9294 43.4298 20.5849 42.8165 19.9716C42.2032 19.3583 41.8587 18.5265 41.8587 17.6592C41.8587 16.7919 42.2032 15.9601 42.8165 15.3468C43.4298 14.7335 44.2616 14.389 45.1289 14.389ZM31.394 18.3132C34.8633 18.3132 38.1904 19.6914 40.6436 22.1445C43.0967 24.5976 44.4748 27.9248 44.4748 31.394C44.4748 34.8633 43.0967 38.1904 40.6436 40.6436C38.1904 43.0967 34.8633 44.4748 31.394 44.4748C27.9248 44.4748 24.5976 43.0967 22.1445 40.6436C19.6914 38.1904 18.3132 34.8633 18.3132 31.394C18.3132 27.9248 19.6914 24.5976 22.1445 22.1445C24.5976 19.6914 27.9248 18.3132 31.394 18.3132ZM31.394 23.5456C29.3125 23.5456 27.3162 24.3724 25.8443 25.8443C24.3724 27.3162 23.5456 29.3125 23.5456 31.394C23.5456 33.4756 24.3724 35.4719 25.8443 36.9438C27.3162 38.4156 29.3125 39.2425 31.394 39.2425C33.4756 39.2425 35.4719 38.4156 36.9438 36.9438C38.4156 35.4719 39.2425 33.4756 39.2425 31.394C39.2425 29.3125 38.4156 27.3162 36.9438 25.8443C35.4719 24.3724 33.4756 23.5456 31.394 23.5456Z" fill="url(#paint0_linear_156_348)"/>
<defs>
<linearGradient id="paint0_linear_156_348" x1="31.394" y1="5.23242" x2="31.394" y2="57.5557" gradientUnits="userSpaceOnUse">
<stop stop-color="#7C4DCF"/>
<stop offset="1" stop-color="#4391F6"/>
</linearGradient>
</defs>
</svg>
